# xmcd CD database file generated by Grip 3.0.1
# 
# Track frame offsets:
#       150
#       15352
#       41725
#       59780
#       79330
#       107240
#       125275
#       150335
#       169812
#       189315
# 
# Disc length: 2960 seconds
# 
# Revision: 2
# Processed by: cddbd v1.4PL0 Copyright (c) Steve Scherf et al.
# Submitted via: Grip 3.0.1
# 
DISCID=7b0b8e0a
DTITLE=Terry Evans - Blues For Thought
DYEAR=1993
DGENRE=Blues
TTITLE0=Too Many Cooks
TTITLE1=Hey Mama, Keep Your Big Mouth Shut
TTITLE2=Shakespeare Didn't Quote That
TTITLE3=Natcha Bone Lover
TTITLE4=That's The Way Love Turned Out For Me
TTITLE5=So Fine
TTITLE6=Get Your Lies Straight
TTITLE7=Live, Love And Be Friends
TTITLE8=Honey Boy
TTITLE9=I Want To Be Close To You, God
EXTD=
EXTT0=
EXTT1=
EXTT2=
EXTT3=
EXTT4=
EXTT5=
EXTT6=
EXTT7=
EXTT8=
EXTT9=
PLAYORDER=
